<?xml version="1.0" encoding="UTF-8" standalone="no"?>
<!DOCTYPE svg PUBLIC "-//W3C//DTD SVG 1.1//EN"
 "http://www.w3.org/Graphics/SVG/1.1/DTD/svg11.dtd">
<!-- Generated by graphviz version 12.2.1 (20241206.2353)
 -->
<!-- Title: clinical_prgoression Pages: 1 -->
<svg width="289pt" height="315pt"
 viewBox="0.00 0.00 289.49 314.53" xmlns="http://www.w3.org/2000/svg" xmlns:xlink="http://www.w3.org/1999/xlink">
<g id="graph0" class="graph" transform="scale(1 1) rotate(0) translate(4 310.53)">
<title>clinical_prgoression</title>
<polygon fill="white" stroke="none" points="-4,4 -4,-310.53 285.49,-310.53 285.49,4 -4,4"/>
<!-- cn -->
<g id="node1" class="node">
<title>cn</title>
<ellipse fill="#d5e8d4" stroke="black" cx="100.98" cy="-272.94" rx="51.27" ry="33.59"/>
<text text-anchor="start" x="91.23" y="-277.39" font-family="Arial" font-size="14.00">CN</text>
<text text-anchor="start" x="74.73" y="-258.64" font-family="Arial" font-size="14.00"> </text>
<text text-anchor="start" x="78.48" y="-258.64" font-family="Arial" font-size="10.00">Baseline: 9</text>
</g>
<!-- scd -->
<g id="node2" class="node">
<title>scd</title>
<ellipse fill="#f5f5f5" stroke="black" cx="54.98" cy="-153.26" rx="54.98" ry="33.59"/>
<text text-anchor="start" x="40.73" y="-157.71" font-family="Arial" font-size="14.00">SCD</text>
<text text-anchor="start" x="26.1" y="-138.96" font-family="Arial" font-size="14.00"> </text>
<text text-anchor="start" x="29.85" y="-138.96" font-family="Arial" font-size="10.00">Baseline: 10</text>
</g>
<!-- cn&#45;&gt;scd -->
<g id="edge1" class="edge">
<title>cn&#45;&gt;scd</title>
<path fill="none" stroke="grey" d="M88.53,-240.09C83.31,-226.75 77.17,-211.04 71.58,-196.74"/>
<polygon fill="grey" stroke="grey" points="74.89,-195.58 67.99,-187.54 68.37,-198.13 74.89,-195.58"/>
<text text-anchor="middle" x="84.11" y="-208.05" font-family="Times,serif" font-size="14.00">1</text>
</g>
<!-- mci -->
<g id="node3" class="node">
<title>mci</title>
<ellipse fill="#fff2cc" stroke="black" cx="100.98" cy="-33.59" rx="54.98" ry="33.59"/>
<text text-anchor="start" x="88.23" y="-38.04" font-family="Arial" font-size="14.00">MCI</text>
<text text-anchor="start" x="72.1" y="-19.29" font-family="Arial" font-size="14.00"> </text>
<text text-anchor="start" x="75.85" y="-19.29" font-family="Arial" font-size="10.00">Baseline: 51</text>
</g>
<!-- cn&#45;&gt;mci -->
<g id="edge2" class="edge">
<title>cn&#45;&gt;mci</title>
<path fill="none" stroke="grey" d="M109.51,-239.46C113.22,-223.7 117.14,-204.42 118.98,-186.85 122.08,-157.16 122.08,-149.37 118.98,-119.68 117.56,-106.09 114.89,-91.47 112.04,-78.26"/>
<polygon fill="grey" stroke="grey" points="115.46,-77.52 109.84,-68.54 108.63,-79.06 115.46,-77.52"/>
<text text-anchor="middle" x="124.68" y="-148.21" font-family="Times,serif" font-size="14.00">1</text>
</g>
<!-- scd&#45;&gt;mci -->
<g id="edge3" class="edge">
<title>scd&#45;&gt;mci</title>
<path fill="none" stroke="grey" d="M67.55,-120.11C72.72,-106.88 78.78,-91.36 84.32,-77.2"/>
<polygon fill="grey" stroke="grey" points="87.49,-78.7 87.87,-68.11 80.97,-76.15 87.49,-78.7"/>
<text text-anchor="middle" x="84.11" y="-88.38" font-family="Times,serif" font-size="14.00">4</text>
</g>
<!-- dementia -->
<g id="node4" class="node">
<title>dementia</title>
<ellipse fill="#f8cecc" stroke="black" cx="225.98" cy="-272.94" rx="55.51" ry="33.59"/>
<text text-anchor="start" x="196.73" y="-277.39" font-family="Arial" font-size="14.00">Dementia</text>
<text text-anchor="start" x="199.73" y="-258.64" font-family="Arial" font-size="14.00"> </text>
<text text-anchor="start" x="203.48" y="-258.64" font-family="Arial" font-size="10.00">Baseline: 3</text>
</g>
</g>
</svg>
