<?xml version="1.0" encoding="UTF-8" standalone="no"?>
<!DOCTYPE svg PUBLIC "-//W3C//DTD SVG 1.1//EN"
 "http://www.w3.org/Graphics/SVG/1.1/DTD/svg11.dtd">
<!-- Generated by graphviz version 12.2.1 (20241206.2353)
 -->
<!-- Title: Progression Pages: 1 -->
<svg width="374pt" height="195pt"
 viewBox="0.00 0.00 373.96 194.85" xmlns="http://www.w3.org/2000/svg" xmlns:xlink="http://www.w3.org/1999/xlink">
<g id="graph0" class="graph" transform="scale(1 1) rotate(0) translate(4 190.85)">
<title>Progression</title>
<polygon fill="white" stroke="none" points="-4,4 -4,-190.85 369.96,-190.85 369.96,4 -4,4"/>
<!-- antn -->
<g id="node1" class="node">
<title>antn</title>
<ellipse fill="#d5e8d4" stroke="black" cx="182.98" cy="-153.26" rx="54.98" ry="33.59"/>
<text text-anchor="start" x="170.23" y="-157.71" font-family="Arial" font-size="14.00">A&#45;T&#45;</text>
<text text-anchor="start" x="154.1" y="-138.96" font-family="Arial" font-size="14.00"> </text>
<text text-anchor="start" x="157.85" y="-138.96" font-family="Arial" font-size="10.00">Baseline: 30</text>
</g>
<!-- aptp -->
<g id="node2" class="node">
<title>aptp</title>
<ellipse fill="#f8cecc" stroke="black" cx="54.98" cy="-33.59" rx="54.98" ry="33.59"/>
<text text-anchor="start" x="38.1" y="-38.04" font-family="Arial" font-size="14.00">A+T+</text>
<text text-anchor="start" x="26.1" y="-19.29" font-family="Arial" font-size="14.00"> </text>
<text text-anchor="start" x="29.85" y="-19.29" font-family="Arial" font-size="10.00">Baseline: 21</text>
</g>
<!-- antn&#45;&gt;aptp -->
<g id="edge3" class="edge">
<title>antn&#45;&gt;aptp</title>
<path fill="none" stroke="grey" d="M152.97,-124.67C135.07,-108.22 112.19,-87.18 93.03,-69.57"/>
<polygon fill="grey" stroke="grey" points="95.64,-67.22 85.91,-63.03 90.91,-72.37 95.64,-67.22"/>
<text text-anchor="middle" x="130.02" y="-88.38" font-family="Times,serif" font-size="14.00">1</text>
</g>
<!-- aptn -->
<g id="node3" class="node">
<title>aptn</title>
<ellipse fill="#fff2cc" stroke="black" cx="182.98" cy="-33.59" rx="54.98" ry="33.59"/>
<text text-anchor="start" x="168.35" y="-38.04" font-family="Arial" font-size="14.00">A+T&#45;</text>
<text text-anchor="start" x="154.1" y="-19.29" font-family="Arial" font-size="14.00"> </text>
<text text-anchor="start" x="157.85" y="-19.29" font-family="Arial" font-size="10.00">Baseline: 13</text>
</g>
<!-- antn&#45;&gt;aptn -->
<g id="edge1" class="edge">
<title>antn&#45;&gt;aptn</title>
<path fill="none" stroke="grey" d="M182.98,-119.48C182.98,-106.97 182.98,-92.47 182.98,-79.05"/>
<polygon fill="grey" stroke="grey" points="186.48,-79.11 182.98,-69.11 179.48,-79.11 186.48,-79.11"/>
<text text-anchor="middle" x="186.35" y="-88.38" font-family="Times,serif" font-size="14.00">2</text>
</g>
<!-- antp -->
<g id="node4" class="node">
<title>antp</title>
<ellipse fill="#fff2cc" stroke="black" cx="310.98" cy="-33.59" rx="54.98" ry="33.59"/>
<text text-anchor="start" x="295.98" y="-38.04" font-family="Arial" font-size="14.00">A&#45;T+</text>
<text text-anchor="start" x="282.1" y="-19.29" font-family="Arial" font-size="14.00"> </text>
<text text-anchor="start" x="285.85" y="-19.29" font-family="Arial" font-size="10.00">Baseline: 10</text>
</g>
<!-- antn&#45;&gt;antp -->
<g id="edge2" class="edge">
<title>antn&#45;&gt;antp</title>
<path fill="none" stroke="grey" d="M212.99,-124.67C230.88,-108.22 253.77,-87.18 272.93,-69.57"/>
<polygon fill="grey" stroke="grey" points="275.05,-72.37 280.04,-63.03 270.31,-67.22 275.05,-72.37"/>
<text text-anchor="middle" x="258.02" y="-88.38" font-family="Times,serif" font-size="14.00">1</text>
</g>
</g>
</svg>
